HIERARCHY
ROOT joint_Root
{
	OFFSET 0.0 0.0 0.0
	CHANNELS 6 Xposition Yposition Zposition Zrotation Xrotation Yrotation 
	JOINT Hips
	{
		OFFSET -17.1583 93.1646 452.98
		CHANNELS 6 Xposition Yposition Zposition Zrotation Xrotation Yrotation 
		JOINT Spine
		{
			OFFSET 15.7357 0.0 0.0
			CHANNELS 6 Xposition Yposition Zposition Zrotation Xrotation Yrotation 
			JOINT Chest
			{
				OFFSET 8.98455 -0.406207 0.0
				CHANNELS 6 Xposition Yposition Zposition Zrotation Xrotation Yrotation 
				JOINT Neck
				{
					OFFSET 16.3773 0.0 0.0
					CHANNELS 6 Xposition Yposition Zposition Zrotation Xrotation Yrotation 
					JOINT Head
					{
						OFFSET 6.45672 0.0 0.0
						CHANNELS 6 Xposition Yposition Zposition Zrotation Xrotation Yrotation 
						End Site
						{
							OFFSET 0.0 0.0 0.0
						}
					}
				}
				JOINT Shoulder_L
				{
					OFFSET 12.9942 -0.242716 4.98039
					CHANNELS 6 Xposition Yposition Zposition Zrotation Xrotation Yrotation 
					JOINT UpperArm_L
					{
						OFFSET 5.34809 0.0 0.0
						CHANNELS 6 Xposition Yposition Zposition Zrotation Xrotation Yrotation 
						JOINT LowerArm_L
						{
							OFFSET 24.3286 1.87007e-05 0.0
							CHANNELS 6 Xposition Yposition Zposition Zrotation Xrotation Yrotation 
							JOINT Hand_L
							{
								OFFSET 22.2916 0.0 0.0
								CHANNELS 6 Xposition Yposition Zposition Zrotation Xrotation Yrotation 
								End Site
								{
									OFFSET 0.0 0.0 0.0
								}
							}
						}
					}
				}
				JOINT Shoulder_R
				{
					OFFSET 12.9945 -0.242716 -4.98039
					CHANNELS 6 Xposition Yposition Zposition Zrotation Xrotation Yrotation 
					JOINT UpperArm_R
					{
						OFFSET -5.34813 0.0 0.0
						CHANNELS 6 Xposition Yposition Zposition Zrotation Xrotation Yrotation 
						JOINT LowerArm_R
						{
							OFFSET -24.3289 0.000322201 0.0
							CHANNELS 6 Xposition Yposition Zposition Zrotation Xrotation Yrotation 
							JOINT Hand_R
							{
								OFFSET -22.2915 -0.000108084 0.0
								CHANNELS 6 Xposition Yposition Zposition Zrotation Xrotation Yrotation 
								End Site
								{
									OFFSET 0.0 0.0 0.0
								}
							}
						}
					}
				}
			}
		}
		JOINT UpperLeg_L
		{
			OFFSET -2.19248 -6.46944 0.0
			CHANNELS 6 Xposition Yposition Zposition Zrotation Xrotation Yrotation 
			JOINT LowerLeg_L
			{
				OFFSET 39.0811 0.0 -1.23785e-05
				CHANNELS 6 Xposition Yposition Zposition Zrotation Xrotation Yrotation 
				JOINT Foot_L
				{
					OFFSET 40.9854 0.0 -1.26872e-05
					CHANNELS 6 Xposition Yposition Zposition Zrotation Xrotation Yrotation 
					JOINT Toes_L
					{
						OFFSET 11.7543 0.0 0.0
						CHANNELS 6 Xposition Yposition Zposition Zrotation Xrotation Yrotation 
						End Site
						{
							OFFSET 0.0 0.0 0.0
						}
					}
				}
			}
		}
		JOINT UpperLeg_R
		{
			OFFSET -2.19251 6.46944 0.0
			CHANNELS 6 Xposition Yposition Zposition Zrotation Xrotation Yrotation 
			JOINT LowerLeg_R
			{
				OFFSET -39.0811 -0.00228153 -0.0401928
				CHANNELS 6 Xposition Yposition Zposition Zrotation Xrotation Yrotation 
				JOINT Foot_R
				{
					OFFSET -40.9854 0.0 0.0
					CHANNELS 6 Xposition Yposition Zposition Zrotation Xrotation Yrotation 
					JOINT Toes_R
					{
						OFFSET -11.7543 0.0 0.0
						CHANNELS 6 Xposition Yposition Zposition Zrotation Xrotation Yrotation 
						End Site
						{
							OFFSET 0.0 0.0 0.0
						}
					}
				}
			}
		}
	}
}
MOTION
Frames:	5
Frame Time:	0.0333333
0.000000 0.000000 0.000000 0.000000 0.000000 -0.000000 1.570400 92.592400 1.986440 88.157000 -3.829010 4.047900 15.735700 0.000005 -0.000001 113.475000 87.090500 -112.604000 8.984550 -0.406207 -0.000000 -2.445800 2.239720 1.789610 16.377300 -0.000001 -0.000001 2.703590 2.306010 -1.571990 6.456720 -0.000001 -0.000000 7.149660 2.200460 5.016140 12.994200 -0.242716 4.980390 -92.714500 8.026000 -71.243800 5.348090 -0.000007 -0.000001 -72.728000 22.322700 0.663973 24.328600 0.000019 0.000005 9.163250 28.462200 -18.699200 22.291600 -0.000001 0.000005 -13.143800 4.994650 7.433490 12.994500 -0.242716 -4.980390 88.287300 5.835430 -73.611400 -5.348130 -0.000001 -0.000004 -72.432800 25.893800 -1.397990 -24.328900 0.000322 -0.000009 1.272020 4.816180 -14.825400 -22.291500 -0.000108 -0.000004 1.168740 5.273070 0.815239 -2.192480 -6.469440 -0.000000 -174.991000 -8.605260 2.915260 39.081100 -0.000007 -0.000012 0.054480 -0.164523 18.321600 40.985400 -0.000006 -0.000013 1.224890 10.326200 -71.034200 11.754300 -0.000000 0.000003 -0.001217 0.186076 -9.028410 -2.192510 6.469440 -0.000001 175.498000 2.528810 -175.934000 -39.081100 -0.002282 -0.040193 0.016591 -0.053471 13.926200 -40.985400 0.000008 0.000006 -7.053540 6.917430 -69.061100 -11.754300 -0.000006 -0.000006 -0.011846 0.284617 -5.006160
0.000000 0.000000 0.000000 0.000000 0.000000 -0.000000 1.551450 92.600300 2.032570 88.271000 -3.755110 3.830890 15.735700 0.000005 -0.000001 113.412000 87.090300 -112.444000 8.984550 -0.406207 -0.000000 -2.444590 2.225330 1.984280 16.377300 -0.000001 -0.000001 2.545210 2.148480 -1.167700 6.456720 -0.000001 -0.000000 6.741910 2.148160 5.412830 12.994200 -0.242716 4.980390 -92.810500 8.268970 -71.153300 5.348090 -0.000007 -0.000001 -71.908100 21.367100 -0.001452 24.328600 0.000019 0.000005 8.864240 28.489800 -18.105100 22.291600 -0.000001 0.000005 -12.931700 5.012590 7.050570 12.994500 -0.242716 -4.980390 88.312300 5.766550 -73.656800 -5.348130 -0.000001 -0.000004 -72.345800 25.801800 -1.391010 -24.328900 0.000322 -0.000009 1.234750 4.648820 -14.904400 -22.291500 -0.000108 -0.000004 1.194900 5.273010 0.816662 -2.192480 -6.469440 -0.000000 -175.098000 -8.663860 2.822420 39.081100 -0.000007 -0.000012 0.052577 -0.160763 18.110100 40.985400 -0.000006 -0.000013 1.209350 10.452500 -71.008800 11.754300 -0.000000 0.000003 -0.001204 0.185891 -9.035900 -2.192510 6.469440 -0.000001 175.432000 2.476130 -176.119000 -39.081100 -0.002282 -0.040193 0.018734 -0.062076 13.934400 -40.985400 0.000008 0.000006 -7.000100 6.774600 -69.142300 -11.754300 -0.000006 -0.000006 -0.011759 0.284011 -5.031000
0.000000 0.000000 0.000000 0.000000 0.000000 -0.000000 1.505100 92.612800 2.029970 88.347600 -3.594190 3.577420 15.735700 0.000005 -0.000001 113.680000 87.073100 -112.607000 8.984550 -0.406207 -0.000000 -2.426040 2.254940 2.192610 16.377300 -0.000001 -0.000001 2.246700 1.882910 -0.622895 6.456720 -0.000001 -0.000000 6.267700 2.002050 6.109700 12.994200 -0.242716 4.980390 -92.940700 8.570290 -70.980500 5.348090 -0.000007 -0.000001 -70.473700 20.242100 -1.223230 24.328600 0.000019 0.000005 8.550960 28.983600 -17.239600 22.291600 -0.000001 0.000005 -13.343100 5.043790 6.370960 12.994500 -0.242716 -4.980390 88.317000 5.768020 -73.702900 -5.348130 -0.000001 -0.000004 -72.244600 25.305900 -1.266420 -24.328900 0.000322 -0.000009 1.209480 4.493490 -15.094100 -22.291500 -0.000108 -0.000004 1.135000 5.274810 0.767774 -2.192480 -6.469440 -0.000000 -175.158000 -8.759230 2.610160 39.081100 -0.000007 -0.000012 0.052979 -0.163275 17.977100 40.985400 -0.000006 -0.000013 1.208100 10.687200 -71.011400 11.754300 -0.000000 0.000003 -0.001277 0.186894 -8.995160 -2.192510 6.469440 -0.000001 175.428000 2.432360 -176.366000 -39.081100 -0.002282 -0.040193 0.020663 -0.069806 13.943100 -40.985400 0.000008 0.000006 -6.969370 6.546670 -69.215800 -11.754300 -0.000006 -0.000006 -0.011939 0.285262 -4.979740
0.000000 0.000000 0.000000 0.000000 0.000000 -0.000000 1.447390 92.640600 2.008760 88.401300 -3.463060 3.201630 15.735700 0.000005 -0.000001 115.314000 87.079300 -114.117000 8.984550 -0.406207 -0.000000 -2.510330 2.389520 2.446250 16.377300 -0.000001 -0.000001 1.913330 1.600840 -0.015285 6.456720 -0.000001 -0.000000 5.634080 1.792540 7.266370 12.994200 -0.242716 4.980390 -93.059400 8.780640 -70.703500 5.348090 -0.000007 -0.000001 -68.482800 18.102900 -3.044560 24.328600 0.000019 0.000005 8.327240 30.628500 -16.029500 22.291600 -0.000001 0.000005 -14.643500 5.102180 5.059100 12.994500 -0.242716 -4.980390 88.301600 5.840420 -73.754600 -5.348130 -0.000001 -0.000004 -72.055300 24.571100 -0.931239 -24.328900 0.000322 -0.000009 1.203180 4.355040 -15.473200 -22.291500 -0.000108 -0.000004 1.048470 5.276280 0.727955 -2.192480 -6.469440 -0.000000 -175.162000 -9.017680 2.328510 39.081100 -0.000007 -0.000012 0.049846 -0.155877 17.733200 40.985400 -0.000006 -0.000013 1.190420 11.049200 -70.940700 11.754300 -0.000000 0.000003 -0.001289 0.187062 -8.988330 -2.192510 6.469440 -0.000001 175.462000 2.316230 -176.676000 -39.081100 -0.002282 -0.040193 0.021081 -0.072236 13.804400 -40.985400 0.000008 0.000006 -7.031860 6.312740 -69.201400 -11.754300 -0.000006 -0.000006 -0.012002 0.285705 -4.961610
0.000000 0.000000 0.000000 0.000000 0.000000 -0.000000 1.383630 92.689300 1.979610 88.500900 -3.354150 2.629520 15.735700 0.000005 -0.000001 117.842000 87.124600 -116.489000 8.984550 -0.406207 -0.000000 -2.710810 2.561270 2.766250 16.377300 -0.000001 -0.000001 1.452360 1.380730 0.593263 6.456720 -0.000001 -0.000000 4.889340 1.588570 8.888760 12.994200 -0.242716 4.980390 -93.031000 8.588680 -70.477600 5.348090 -0.000007 -0.000001 -66.234100 14.976100 -5.192740 24.328600 0.000019 0.000005 8.151640 32.583900 -14.895500 22.291600 -0.000001 0.000005 -16.874900 5.151000 3.907140 12.994500 -0.242716 -4.980390 88.271400 5.940910 -73.744700 -5.348130 -0.000001 -0.000004 -71.585700 24.058500 -0.689970 -24.328900 0.000322 -0.000009 1.113690 3.953950 -15.758500 -22.291500 -0.000108 -0.000004 0.975583 5.280090 0.623415 -2.192480 -6.469440 -0.000000 -175.272000 -9.190420 1.952480 39.081100 -0.000007 -0.000012 0.047344 -0.152302 17.268300 40.985400 -0.000006 -0.000013 1.142780 11.331500 -70.802800 11.754300 -0.000000 0.000003 -0.001170 0.185427 -9.054800 -2.192510 6.469440 -0.000001 175.425000 2.344220 -177.147000 -39.081100 -0.002282 -0.040193 0.020361 -0.070603 13.559700 -40.985400 0.000008 0.000006 -7.300970 6.203440 -69.038200 -11.754300 -0.000006 -0.000006 -0.012077 0.286219 -4.940560
